<svg width="110" height="39" viewBox="0 0 110 39" fill="none" xmlns="http://www.w3.org/2000/svg">
<path d="M32.918 26.3723V11.8931H39.4821C41.1807 11.8931 42.4722 12.3732 43.3564 13.3335C44.1299 14.1583 44.5166 15.226 44.5166 16.5366C44.5166 17.8473 44.1299 18.915 43.3564 19.7398C42.4728 20.7001 41.1814 21.1802 39.4821 21.1802H36.118V26.3703L32.918 26.3723ZM36.118 14.3685V18.7058H38.6066C39.4747 18.7058 40.1265 18.5783 40.5618 18.3234C41.1334 17.9717 41.4192 17.3765 41.4192 16.5376C41.4192 15.6988 41.1334 15.1036 40.5618 14.7519C40.1271 14.4976 39.475 14.3685 38.6066 14.3685H36.118Z" fill="#0967D2"/>
<path d="M45.7417 26.3706V15.8862H48.4939V17.8352H48.5342C48.803 17.1743 49.2736 16.6141 49.8796 16.2336C50.4748 15.8293 51.1776 15.6108 51.8983 15.606C52.1132 15.6059 52.3269 15.6397 52.5312 15.7061V18.3827C52.1889 18.3106 51.8396 18.277 51.4897 18.2826C49.5878 18.2826 48.6365 19.404 48.6358 21.6469V26.3726L45.7417 26.3706Z" fill="#0967D2"/>
<path d="M53.2432 21.1414C53.2432 19.4658 53.7396 18.1238 54.7325 17.1155C55.7254 16.1071 57.0436 15.604 58.6873 15.606C60.3457 15.606 61.671 16.1091 62.6632 17.1155C63.6554 18.1218 64.1512 19.4638 64.1505 21.1414C64.1505 22.8051 63.6547 24.1397 62.6632 25.1454C61.6716 26.151 60.3463 26.6545 58.6873 26.6559C57.0416 26.6559 55.7234 26.1527 54.7325 25.1464C53.7416 24.14 53.2452 22.8051 53.2432 21.1414ZM56.1383 21.1414C56.1383 22.101 56.3218 22.8648 56.6888 23.4327C57.1241 24.1354 57.7903 24.4867 58.6873 24.4867C60.3987 24.4867 61.2547 23.3716 61.2554 21.1414C61.2554 18.8972 60.3993 17.7748 58.6873 17.7741C56.9886 17.7741 56.139 18.8965 56.1383 21.1414Z" fill="#0967D2"/>
<path d="M65.6587 26.3723V11.8931H71.937C73.9073 11.8931 75.4772 12.4883 76.6465 13.6788C77.9104 14.9341 78.5427 16.7248 78.5434 19.0511C78.5434 21.2413 77.9996 22.985 76.9122 24.2823C75.7428 25.6757 74.0845 26.3723 71.937 26.3723H65.6587ZM68.8587 14.5697V23.6957H71.7126C72.7457 23.6957 73.5816 23.3714 74.2203 22.7227C74.969 21.9667 75.343 20.8442 75.3423 19.3554C75.3423 17.8019 75.0431 16.6397 74.4447 15.869C73.7645 15.0015 72.6636 14.5677 71.142 14.5677L68.8587 14.5697Z" fill="#0967D2"/>
<path d="M89.7786 21.8321H82.1739C82.2551 23.6018 83.1178 24.4867 84.7621 24.4867C85.299 24.4936 85.8254 24.3383 86.2716 24.0413C86.6932 23.784 86.9498 23.4797 87.0465 23.1284H89.5944C88.8196 25.4814 87.1759 26.6572 84.6635 26.6558C83.0186 26.6558 81.7104 26.1463 80.739 25.1273C79.7675 24.1083 79.2808 22.7797 79.2788 21.1414C79.2788 19.5472 79.7783 18.2259 80.7772 17.1775C81.7761 16.1291 83.0709 15.6053 84.6615 15.606C86.3736 15.606 87.6985 16.2399 88.6364 17.5078C89.5059 18.6743 89.8866 20.1157 89.7786 21.8321ZM82.1739 20.0053H86.8824C86.6107 18.5178 85.8429 17.7741 84.579 17.7741C83.7639 17.7741 83.1386 18.045 82.7033 18.5869C82.3775 18.9904 82.1918 19.488 82.1739 20.0053Z" fill="#0967D2"/>
<path d="M100.215 15.8865L96.6472 26.3708H93.427L89.8174 15.8865H92.8544L95.0773 23.0445H95.1186L97.3405 15.8865H100.215Z" fill="#0967D2"/>
<path d="M100.236 22.9652H102.988C103.001 23.5611 103.233 24.0139 103.681 24.3236C104.075 24.5965 104.585 24.7326 105.21 24.732C105.649 24.746 106.085 24.6474 106.475 24.4457C106.895 24.2044 107.106 23.8531 107.106 23.3916C107.106 22.9912 106.82 22.6609 106.25 22.4187C105.842 22.2438 105.033 22.0273 103.823 21.769C102.791 21.5528 102.023 21.2692 101.52 20.9182C100.828 20.4577 100.48 19.8111 100.48 18.9703C100.48 16.7261 102.009 15.6046 105.067 15.606C107.975 15.606 109.525 16.7211 109.715 18.9513H106.964C106.895 18.0033 106.236 17.5329 104.986 17.5329C103.912 17.5329 103.376 17.8568 103.376 18.5048C103.376 18.9513 103.715 19.2956 104.395 19.5378C104.477 19.5659 105.232 19.7417 106.659 20.0654C107.704 20.3096 108.472 20.6076 108.961 20.9592C109.656 21.4457 110.002 22.1277 110.001 23.0053C110.001 24.2765 109.498 25.2298 108.492 25.8651C107.662 26.3916 106.56 26.6552 105.188 26.6559C103.815 26.6565 102.701 26.3866 101.845 25.8461C100.827 25.2114 100.291 24.2511 100.236 22.9652Z" fill="#0967D2"/>
<path d="M18.6533 20.6329C18.6525 20.738 18.6753 20.842 18.7199 20.9373C18.7645 21.0327 18.8299 21.1169 18.9113 21.184C18.9927 21.2511 19.0881 21.2993 19.1905 21.3252C19.293 21.351 19.4 21.3539 19.5037 21.3336C21.8484 20.8651 28.181 19.0243 27.4374 12.8582C26.9523 9.27165 21.471 8.48288 19.4212 8.30871C19.3229 8.30079 19.224 8.31329 19.1309 8.34544C19.0378 8.37758 18.9524 8.42865 18.8802 8.4954C18.8079 8.56215 18.7505 8.64312 18.7114 8.73317C18.6724 8.82321 18.6526 8.92035 18.6533 9.01841V20.6329Z" fill="#0967D2"/>
<path d="M14.1577 6.01558L1.33237 0.0667109C1.22377 0.0164326 1.10422 -0.00592025 0.984682 0.00170208C0.865144 0.00932442 0.749442 0.046678 0.648188 0.110337C0.546934 0.173997 0.463368 0.261924 0.405153 0.366057C0.346937 0.47019 0.315937 0.587195 0.314994 0.706342L2.06433e-05 37.8289C-0.000896282 37.949 0.0287463 38.0674 0.0861886 38.173C0.143631 38.2786 0.227005 38.3681 0.328549 38.433C0.430094 38.4979 0.546506 38.5363 0.666948 38.5444C0.787391 38.5526 0.907947 38.5303 1.01739 38.4796L14.1577 32.3836C14.2814 32.3267 14.3861 32.2358 14.4594 32.1215C14.5327 32.0073 14.5715 31.8745 14.5713 31.7389V6.66121C14.5712 6.52561 14.5323 6.39283 14.459 6.27847C14.3858 6.1641 14.2812 6.0729 14.1577 6.01558ZM3.40938 21.3467C3.07401 21.3467 2.74618 21.2478 2.46734 21.0624C2.1885 20.8771 1.97116 20.6137 1.84283 20.3055C1.71449 19.9973 1.68091 19.6582 1.74634 19.331C1.81176 19.0038 1.97325 18.7033 2.21039 18.4674C2.44753 18.2315 2.74966 18.0709 3.07858 18.0058C3.40749 17.9407 3.74843 17.9741 4.05826 18.1018C4.3681 18.2294 4.63292 18.4456 4.81923 18.723C5.00555 19.0003 5.105 19.3264 5.105 19.66C5.105 20.1074 4.92635 20.5364 4.60836 20.8527C4.29037 21.169 3.85908 21.3467 3.40938 21.3467Z" fill="#0967D2"/>
</svg>
